<?xml version="1.0" encoding="UTF-8"?> <!-- Generator: Adobe Illustrator 21.0.0, SVG Export Plug-In . SVG Version: 6.00 Build 0) --> <svg xmlns="http://www.w3.org/2000/svg" xmlns:xlink="http://www.w3.org/1999/xlink" id="Layer_1" x="0px" y="0px" viewBox="0 0 100.4 100.4" style="enable-background:new 0 0 100.4 100.4;" xml:space="preserve"> <style type="text/css"> .st0{fill:#81BE47;} </style> <g> <path class="st0" d="M58.2,70l15-24.1c0-0.1,0.1-0.2,0.1-0.2c2.6-4.2,4-9,4-14c0-14.8-12-26.8-26.8-26.8s-26.8,12-26.8,26.8 c0,4.9,1.4,9.7,4,14c0,0.1,0.1,0.1,0.1,0.2l14.5,24.2C31,71.6,23.6,76.3,23.6,81.8c0,6.9,11.8,12.4,26.8,12.4s26.8-5.4,26.8-12.4 C77.3,76.2,69.6,71.5,58.2,70z M30.4,44.3c-2.4-3.8-3.7-8.2-3.7-12.6c0-13.1,10.7-23.8,23.8-23.8c13.1,0,23.8,10.7,23.8,23.8 c0,4.5-1.3,8.8-3.7,12.6c-0.1,0.1-0.1,0.2-0.1,0.2L54.7,70c-0.2,0.4-0.3,0.4-0.6,0.9l-4,6.4L30.5,44.6 C30.5,44.5,30.4,44.4,30.4,44.3z M50.5,91.2c-14,0-23.8-4.9-23.8-9.4c0-4,7.4-7.8,17.3-9l4.9,8.2c0.3,0.4,0.8,0.7,1.3,0.7 c0,0,0,0,0,0c0.5,0,1-0.3,1.3-0.7l5.1-8.2c10.1,1.1,17.8,5,17.8,9C74.3,86.3,64.5,91.2,50.5,91.2z"></path> <path class="st0" d="M60.2,31.7c0-5.4-4.4-9.7-9.7-9.7s-9.7,4.4-9.7,9.7s4.4,9.7,9.7,9.7C55.8,41.4,60.2,37,60.2,31.7z M43.7,31.7 c0-3.7,3-6.7,6.7-6.7s6.7,3,6.7,6.7s-3,6.7-6.7,6.7S43.7,35.4,43.7,31.7z"></path> </g> </svg> 