<?xml version="1.0" encoding="UTF-8"?> <!-- Generator: Adobe Illustrator 21.0.0, SVG Export Plug-In . SVG Version: 6.00 Build 0) --> <svg xmlns="http://www.w3.org/2000/svg" xmlns:xlink="http://www.w3.org/1999/xlink" id="Layer_1" x="0px" y="0px" viewBox="0 0 100.4 100.4" style="enable-background:new 0 0 100.4 100.4;" xml:space="preserve"> <style type="text/css"> .st0{fill:#81BE47;} </style> <path class="st0" d="M39.5,85.6c4,2.2,7.9,3.3,11.5,3.3c3.1,0,5.9-0.8,8.5-2.4l9.4-5.8c0.3-0.2,0.6-0.5,0.7-0.9 c0.1-0.4,0-0.8-0.2-1.1l-8.1-13.2c-0.2-0.3-0.5-0.6-0.9-0.7c-0.4-0.1-0.8,0-1.1,0.2l-9.5,5.8c-1.5,0.9-3.3,1.2-5.1,0.8 c-1.8-0.4-3.3-1.4-4.2-2.9L27.5,48c-1.9-3-0.9-7,2.1-8.8c0,0,0,0,0,0l9.8-6.1c0.7-0.4,0.9-1.4,0.5-2.1l-8.1-13.2 c-0.4-0.7-1.4-0.9-2.1-0.5l-9.8,6.1C9,30.1,9.3,47.9,20.8,66.5C26.1,75.1,32.7,81.8,39.5,85.6z M21.5,25.9l8.5-5.3l6.6,10.6L28,36.6 c0,0,0,0,0,0c-4.4,2.7-5.8,8.5-3.1,13l12.9,20.9c1.3,2.1,3.5,3.6,6.1,4.2c2.6,0.6,5.2,0.1,7.3-1.2l8.2-5.1l6.6,10.7l-8.1,5 c-5.9,3.7-12.5,1.4-17-1c-6.3-3.5-12.6-10-17.6-18.1C12.8,47.8,12,31.8,21.5,25.9z"></path> <path class="st0" d="M49.6,33.6c4.9,0.3,9.2,2.8,11.8,6.8c2.5,3.9,3.1,8.6,1.7,13c-0.3,0.8,0.2,1.6,0.9,1.9c0.2,0.1,0.3,0.1,0.5,0.1 c0.6,0,1.2-0.4,1.4-1c1.8-5.3,1-11-2-15.6c-3.1-4.8-8.4-7.9-14.1-8.2c-0.8,0-1.5,0.6-1.6,1.4C48.1,32.8,48.8,33.5,49.6,33.6z"></path> <path class="st0" d="M51.7,22.4c7.9,0.9,14.8,5.2,19.1,11.8c4.2,6.4,5.4,14.3,3.2,21.7c-0.2,0.8,0.2,1.6,1,1.9 c0.1,0,0.3,0.1,0.4,0.1c0.7,0,1.3-0.4,1.4-1.1c2.4-8.2,1-17-3.6-24.1C68.5,25.2,60.8,20.4,52,19.4c-0.8-0.1-1.6,0.5-1.7,1.3 S50.9,22.3,51.7,22.4z"></path> <path class="st0" d="M53.7,12.6c10.4,1.5,19.7,7.4,25.5,16.2c5.6,8.6,7.3,19.3,4.6,29.3c-0.2,0.8,0.3,1.6,1.1,1.8 c0.1,0,0.3,0.1,0.4,0.1c0.7,0,1.3-0.4,1.4-1.1c2.9-10.8,1.1-22.4-5-31.7c-6.2-9.6-16.3-16-27.6-17.5c-0.8-0.1-1.6,0.5-1.7,1.3 C52.3,11.7,52.9,12.5,53.7,12.6z"></path> </svg> 