<?xml version="1.0" encoding="UTF-8"?> <!-- Generator: Adobe Illustrator 21.0.0, SVG Export Plug-In . SVG Version: 6.00 Build 0) --> <svg xmlns="http://www.w3.org/2000/svg" xmlns:xlink="http://www.w3.org/1999/xlink" id="Layer_1" x="0px" y="0px" viewBox="0 0 98.6 98.6" style="enable-background:new 0 0 98.6 98.6;" xml:space="preserve"> <style type="text/css"> .st0{fill:#FFFFFF;} </style> <g> <path class="st0" d="M62.2,24.5h-26c-6.5,0-11.8,5.3-11.8,11.8v26.2c0,6.5,5.3,11.8,11.8,11.8h25.9c6.5,0,11.8-5.3,11.8-11.8V36.2 C73.9,29.8,68.7,24.5,62.2,24.5z M49.2,65c-8.8,0-16-7.1-16-15.8s7.2-15.8,16-15.8s16,7.1,16,15.8S58,65,49.2,65z M65.5,36.5 c-2.1,0-3.8-1.7-3.8-3.8s1.7-3.8,3.8-3.8s3.8,1.7,3.8,3.8S67.6,36.5,65.5,36.5z"></path> <path class="st0" d="M49.3,0C22.1,0,0,22.1,0,49.3s22.1,49.3,49.3,49.3s49.3-22.1,49.3-49.3S76.5,0,49.3,0z M79.8,62.4 c0,9.7-7.9,17.6-17.6,17.6h-26c-9.7,0-17.6-7.9-17.6-17.6V36.2c0-9.7,7.9-17.6,17.6-17.6h25.9c9.7,0,17.6,7.9,17.6,17.6v26.2H79.8z "></path> <path class="st0" d="M49.2,39.2c-5.6,0-10.1,4.5-10.1,10s4.6,10,10.1,10s10.1-4.5,10.1-10S54.8,39.2,49.2,39.2z"></path> </g> </svg> 