<?xml version="1.0" encoding="UTF-8"?> <!-- Generator: Adobe Illustrator 21.0.0, SVG Export Plug-In . SVG Version: 6.00 Build 0) --> <svg xmlns="http://www.w3.org/2000/svg" xmlns:xlink="http://www.w3.org/1999/xlink" id="Layer_1" x="0px" y="0px" viewBox="0 0 100 100" style="enable-background:new 0 0 100 100;" xml:space="preserve"> <style type="text/css"> .st0{fill:#81BE47;} </style> <title>Artboard 16 copy 2</title> <path class="st0" d="M91.9,25L91.9,25c-0.1-0.2-0.2-0.4-0.3-0.5l0,0l0,0c-0.1-0.1-0.3-0.2-0.4-0.3l0,0C91,24.1,90.9,24,90.7,24H9.4 c-0.2,0-0.3,0.1-0.5,0.1l0,0c-0.2,0.1-0.3,0.2-0.4,0.3l0,0l0,0c-0.2,0.1-0.3,0.3-0.3,0.5v0.1C8,25.2,8,25.3,8,25.5v52 C8,78.3,8.7,79,9.5,79h81c0.8,0,1.5-0.7,1.5-1.5v-52C92,25.3,92,25.2,91.9,25z M89,73.6L64.3,51.5L89,28.9V73.6z M11,28.9l24,21.9 L11,73.1V28.9z M61,50.4c-0.1,0-0.1,0.1-0.2,0.1v0.1L50,60.5L13.4,27h73.3L61,50.4z M37.2,52.9L49,63.6c0.6,0.5,1.4,0.5,2,0l11-10.1 L87.2,76H12.2L37.2,52.9z"></path> </svg> 