<?xml version="1.0" encoding="UTF-8"?> <!-- Generator: Adobe Illustrator 21.0.0, SVG Export Plug-In . SVG Version: 6.00 Build 0) --> <svg xmlns="http://www.w3.org/2000/svg" xmlns:xlink="http://www.w3.org/1999/xlink" id="Layer_1" x="0px" y="0px" viewBox="0 0 98.6 98.6" style="enable-background:new 0 0 98.6 98.6;" xml:space="preserve"> <style type="text/css"> .st0{fill:#FFFFFF;} </style> <path class="st0" d="M49.3,0C22.1,0,0,22.1,0,49.3s22.1,49.3,49.3,49.3s49.3-22.1,49.3-49.3S76.5,0,49.3,0z M63.8,28.3 c-2.3,0-4.7,0-7,0c-1.5-0.1-3,1-3.3,2.5c0,2.6,0,5.1,0,7.7c3.4,0,6.9,0,10.3,0c-0.3,3.7-0.7,7.4-1.3,11.1c-3,0-6.1,0-9.1,0 c0,11,0,21.9,0,32.8c-4.5,0-9,0-13.6,0c-0.1-11,0-21.9,0-32.9c-2.2,0-4.4,0-6.6,0c0-3.7,0-7.4,0-11c2.2,0,4.4,0,6.6,0 c0.1-3.6-0.1-7.2,0.1-10.7c0.2-2.9,1.3-5.7,3.4-7.7c2.6-2.4,6.2-3.3,9.6-3.4c3.6,0,7.3,0,10.9,0C63.8,20.6,63.8,24.4,63.8,28.3z"></path> </svg> 