<?xml version="1.0" encoding="UTF-8"?> <!-- Generator: Adobe Illustrator 21.0.0, SVG Export Plug-In . SVG Version: 6.00 Build 0) --> <svg xmlns="http://www.w3.org/2000/svg" xmlns:xlink="http://www.w3.org/1999/xlink" id="Layer_1" x="0px" y="0px" viewBox="0 0 98.6 98.6" style="enable-background:new 0 0 98.6 98.6;" xml:space="preserve"> <style type="text/css"> .st0{fill:#FFFFFF;} </style> <g> <polygon class="st0" points="43.7,56.5 59,48.4 43.7,40.5 "></polygon> <path class="st0" d="M49.3,0C22.1,0,0,22.1,0,49.3s22.1,49.3,49.3,49.3s49.3-22.1,49.3-49.3S76.5,0,49.3,0z M76.8,60.8 c-0.7,4.2-2.7,6.4-6.9,6.9c-4.7,0.5-15.4,0.8-20.1,0.8c-4.9,0-14.8-0.2-19.7-0.6c-4.2-0.4-7.1-2.7-7.7-6.9 c-0.4-3.1-0.7-6.7-0.7-12.5c0-6.5,0.2-9.2,0.8-12.1c0.8-4.2,2.8-6.2,7.3-6.6c4.8-0.5,9.3-0.7,19.3-0.7c4.9,0,15.5,0.3,20.4,0.7 c4.3,0.4,6.7,3,7.2,7.2c0.4,2.9,0.7,7.1,0.7,11.6C77.5,56.2,76.8,60.8,76.8,60.8z"></path> </g> </svg> 